<?xml version="1.0" encoding="UTF-8" standalone="no"?>
<svg xmlns="http://www.w3.org/2000/svg" width="150" height="80" viewBox="0 0 150 80">
  <rect x="10" y="10" width="130" height="60" rx="5" ry="5" fill="#ffffff" stroke="#1976d2" stroke-width="2"/>
  <!-- Usar path en lugar de texto para mayor compatibilidad -->
  <g fill="#1976d2" transform="translate(45, 45)">
    <path d="M5,0 C5,-5 10,-10 15,-10 C20,-10 25,-5 25,0 L20,0 C20,-2.5 17.5,-5 15,-5 C12.5,-5 10,-2.5 10,0 L5,0 Z" />
    <path d="M30,-10 L30,0 L35,0 L35,-10 L30,-10 Z" />
    <path d="M40,-10 L40,0 L45,0 L45,-10 L40,-10 Z" />
  </g>
  <path d="M30,55 h90" stroke="#424242" stroke-width="0.5" />
  <text x="75" y="65" text-anchor="middle" font-family="Arial, sans-serif" font-size="8" fill="#424242">Sistema de Seguridad y Salud</text>
</svg>